<?xml version="1.0" encoding="utf-8"?>
<!-- Generator: Adobe Illustrator 16.0.0, SVG Export Plug-In . SVG Version: 6.00 Build 0)  -->
<!DOCTYPE svg PUBLIC "-//W3C//DTD SVG 1.1//EN" "http://www.w3.org/Graphics/SVG/1.1/DTD/svg11.dtd">
<svg version="1.1" id="Layer_1" xmlns="http://www.w3.org/2000/svg" xmlns:xlink="http://www.w3.org/1999/xlink" x="0px" y="0px"
	 width="511.398px" height="560px" viewBox="0 0 511.398 560" enable-background="new 0 0 511.398 560" xml:space="preserve">
<path opacity="0.4" fill="#CDDFE5" d="M338.572,82.021v78.344c50.454,27.997,84.623,81.749,84.623,143.53
	c0,90.636-73.467,164.12-164.118,164.12c-90.627,0-164.103-73.484-164.103-164.12c0-61.781,34.178-115.534,84.632-143.53V82.021
	C88.482,114.671,23.172,201.541,23.172,303.895C23.172,434.172,128.8,539.8,259.077,539.8
	c130.308,0,235.905-105.628,235.905-235.905C494.982,201.541,429.681,114.671,338.572,82.021z"/>
<rect x="215.484" y="21.84" opacity="0.4" fill="#CDDFE5" width="87.171" height="282.054"/>
</svg>
